<?xml version="1.0" standalone="no"?><!DOCTYPE svg PUBLIC "-//W3C//DTD SVG 1.1//EN" "http://www.w3.org/Graphics/SVG/1.1/DTD/svg11.dtd"><svg t="1495162211031" class="icon" style="" viewBox="0 0 2457 1024" version="1.1" xmlns="http://www.w3.org/2000/svg" p-id="751" xmlns:xlink="http://www.w3.org/1999/xlink" width="479.8828125" height="200"><defs><style type="text/css"></style></defs><path d="M849.92 399.36v153.6s245.76-122.88 307.2-30.72V614.4S819.2 532.48 798.72 798.72c0 0 0 215.04 194.56 225.28 0 0 286.72-30.72 327.68-30.72v-512c-10.24 0-40.96-225.28-471.04-81.92z m307.2 317.44v163.84s-194.56 51.2-225.28-51.2v-51.2s10.24-92.16 225.28-61.44z m204.8-337.92v634.88h143.36v-512s184.32-51.2 194.56 20.48v481.28h163.84l-10.24-522.24s-10.24-133.12-153.6-133.12-337.92 30.72-337.92 30.72z m563.2-225.28h153.6v409.6h10.24l194.56-204.8h163.84l-256 276.48v20.48l256 348.16h-163.84l-204.8-266.24h-10.24v266.24h-153.6V153.6z" fill="#651C80" p-id="752"></path><path d="M0 1013.76h522.24s61.44 0 81.92-20.48v-20.48h-81.92v-20.48h153.6s20.48-10.24 20.48-30.72H522.24v-30.72H716.8s10.24 0 10.24-30.72H153.6v-30.72h593.92v-30.72H153.6v-30.72h604.16v-30.72H153.6v-30.72h604.16v-30.72H153.6v-30.72h593.92s10.24-30.72-20.48-30.72H153.6v-30.72H716.8s0-30.72-20.48-30.72H471.04v-20.48h174.08s0-30.72-30.72-30.72H471.04v-30.72h81.92s40.96-10.24 61.44-30.72H153.6V409.6h501.76s20.48-20.48 20.48-30.72H153.6v-30.72h552.96s10.24-10.24 10.24-30.72H153.6v-30.72H716.8v-30.72H153.6v-30.72H716.8V204.8H153.6v-30.72h552.96s0-30.72-10.24-30.72H522.24v-30.72h163.84s0-30.72-20.48-30.72H532.48V51.2H614.4s0-30.72-61.44-30.72H0v993.28z" fill="#DEA014" p-id="753"></path></svg>