<?xml version="1.0" standalone="no"?><!DOCTYPE svg PUBLIC "-//W3C//DTD SVG 1.1//EN" "http://www.w3.org/Graphics/SVG/1.1/DTD/svg11.dtd"><svg t="1495271426459" class="icon" style="" viewBox="0 0 1024 1024" version="1.1" xmlns="http://www.w3.org/2000/svg" p-id="7012" xmlns:xlink="http://www.w3.org/1999/xlink" width="200" height="200"><defs><style type="text/css"></style></defs><path d="M905.84 352l78.768 0L984.608 72c0-22.112-17.616-40-39.392-40l-275.68 0 0 80 236.304 0L905.84 352 905.84 352zM118.144 112l236.32 0L354.464 32 78.768 32C57.008 32 39.376 49.888 39.376 72L39.376 352l78.768 0L118.144 112 118.144 112zM118.144 672 39.376 672l0 279.984C39.376 974.112 57.008 992 78.768 992l275.68 0 0-80L118.144 912 118.144 672 118.144 672zM905.84 912 669.536 912l0 80 275.68 0c21.776 0 39.392-17.888 39.392-40.016L984.608 672l-78.768 0L905.84 912 905.84 912zM984.624 472 39.376 472C17.616 472 0 489.888 0 512s17.616 39.984 39.376 39.984l945.232 0C1006.384 551.984 1024 534.112 1024 512S1006.384 472 984.624 472L984.624 472z" p-id="7013" fill="#373737"></path></svg>